<svg width="32" height="32" viewBox="0 0 32 32" fill="none" xmlns="http://www.w3.org/2000/svg">
<path d="M15.9998 0.999989C24.284 0.999989 30.9996 7.71564 30.9996 15.9998C30.9996 24.284 24.284 30.9996 15.9998 30.9996C7.71564 30.9996 0.999989 24.284 0.999989 15.9998C0.999989 7.71564 7.71564 0.999989 15.9998 0.999989Z" fill="#CAC9D6"/>
<path d="M15.9998 0.999989C24.284 0.999989 30.9996 7.71564 30.9996 15.9998C30.9996 24.284 24.284 30.9996 15.9998 30.9996C7.71564 30.9996 0.999989 24.284 0.999989 15.9998C0.999989 7.71564 7.71564 0.999989 15.9998 0.999989Z" stroke="#CAC9D6" stroke-width="2"/>
<rect x="9.9999" y="18.7498" width="11.9998" height="4.99992" rx="2.5" fill="#A5A6BC" stroke="#A5A6BC" stroke-width="2"/>
<rect x="13.2499" y="8.24992" width="5.49991" height="6.9999" rx="2.75" fill="#A5A6BC" stroke="#A5A6BC" stroke-width="2"/>
</svg>
