<svg width="32" height="32" viewBox="0 0 32 32" fill="none" xmlns="http://www.w3.org/2000/svg">
<rect width="32" height="32" rx="16" transform="matrix(-1 0 0 1 32 0)" fill="#0F0F32"/>
<path d="M21.4444 8.0625C23.4081 8.0625 25 9.65438 25 11.6181L25 20.3893C25 22.353 23.4081 23.9449 21.4444 23.9449L10.5556 23.9449C8.59188 23.9449 7 22.353 7 20.3893L7 11.6181C7 9.65437 8.59188 8.0625 10.5556 8.0625L21.4444 8.0625Z" fill="url(#paint0_linear_127_901)"/>
<path fill-rule="evenodd" clip-rule="evenodd" d="M17.2411 15.3311C17.7358 14.5694 18.8507 14.5695 19.3456 15.3311L21.9247 19.3018C22.4669 20.1366 21.8682 21.24 20.8729 21.2403H15.7147C15.5884 21.2403 15.4683 21.2222 15.3563 21.1895C15.2622 21.2212 15.1609 21.2403 15.0526 21.2403H11.1835C10.4371 21.24 9.98802 20.4132 10.3944 19.7872L12.329 16.8086C12.7001 16.2377 13.5359 16.2377 13.9071 16.8086L15.0936 18.6358L17.2411 15.3311Z" fill="#1C2044"/>
<path d="M11.2372 13.1789C10.7437 13.0287 10.7346 12.3333 11.224 12.1701L11.7557 11.9929C11.9138 11.9402 12.0379 11.8161 12.0906 11.6581L12.2678 11.1263C12.4309 10.6369 13.1263 10.646 13.2765 11.1396L13.4035 11.5569C13.4522 11.7167 13.5735 11.8443 13.7307 11.9009L14.5004 12.178C14.9731 12.3481 14.9651 13.0194 14.4885 13.1783L13.8302 13.3977C13.6722 13.4504 13.5481 13.5745 13.4954 13.7326L13.276 14.3908C13.1171 14.8675 12.4458 14.8755 12.2756 14.4028L11.9985 13.633C11.9419 13.4758 11.8144 13.3545 11.6545 13.3059L11.2372 13.1789Z" fill="#1C2044"/>
<defs>
<linearGradient id="paint0_linear_127_901" x1="16" y1="8.0625" x2="16" y2="23.9449" gradientUnits="userSpaceOnUse">
<stop stop-color="#FFECD2"/>
<stop offset="1" stop-color="#FFCD90"/>
</linearGradient>
</defs>
</svg>
