<svg width="32" height="32" viewBox="0 0 32 32" fill="none" xmlns="http://www.w3.org/2000/svg">
<rect width="32" height="32" rx="16" transform="matrix(-1 0 0 1 32 0)" fill="#0F0F32"/>
<path d="M20.4444 7.10937C22.4081 7.10937 24 8.70125 24 10.6649L24 21.3316C24 23.2953 22.4081 24.8872 20.4444 24.8872L11.5556 24.8872C9.59188 24.8872 8 23.2953 8 21.3316L8 10.6649C8 8.70125 9.59188 7.10937 11.5556 7.10937L20.4444 7.10937Z" fill="url(#paint0_linear_127_912)"/>
<path d="M11.5888 12.632C11.0953 12.4818 11.0861 11.7864 11.5755 11.6233L12.1073 11.446C12.2654 11.3933 12.3894 11.2693 12.4421 11.1112L12.6194 10.5794C12.7825 10.09 13.4779 10.0992 13.6281 10.5927L13.7551 11.01C13.8038 11.1699 13.925 11.2974 14.0823 11.354L14.852 11.6311C15.3247 11.8013 15.3167 12.4726 14.8401 12.6314L14.1818 12.8509C14.0237 12.9036 13.8997 13.0276 13.847 13.1857L13.6275 13.844C13.4687 14.3206 12.7974 14.3286 12.6272 13.8559L12.3501 13.0861C12.2935 12.9289 12.166 12.8076 12.0061 12.759L11.5888 12.632Z" fill="#1C2044"/>
<path d="M11 16.665C11 16.2977 11.2977 16 11.665 16H20.335C20.7023 16 21 16.2977 21 16.665C21 17.0323 20.7023 17.33 20.335 17.33H11.665C11.2977 17.33 11 17.0323 11 16.665Z" fill="#1C2044"/>
<path d="M11 19.665C11 19.2977 11.2977 19 11.665 19H17.335C17.7023 19 18 19.2977 18 19.665C18 20.0323 17.7023 20.33 17.335 20.33H11.665C11.2977 20.33 11 20.0323 11 19.665Z" fill="#1C2044"/>
<defs>
<linearGradient id="paint0_linear_127_912" x1="16" y1="7.10937" x2="16" y2="24.8872" gradientUnits="userSpaceOnUse">
<stop stop-color="#FFECD2"/>
<stop offset="1" stop-color="#FFCD90"/>
</linearGradient>
</defs>
</svg>
