<svg width="20" height="20" viewBox="0 0 20 20" fill="none" xmlns="http://www.w3.org/2000/svg">
<path d="M9.99978 2C13.9187 2 17.3444 4.91365 17.9918 8.73191C18.008 8.82779 18.0001 8.9262 17.9687 9.01824C17.9373 9.11029 17.8835 9.19307 17.8121 9.2591C17.7408 9.32514 17.6541 9.37235 17.5599 9.39648C17.4656 9.42061 17.3669 9.42089 17.2726 9.39729L14.1505 8.61678C14.0019 8.57729 13.8748 8.4809 13.7967 8.34846C13.7186 8.21601 13.6957 8.05814 13.733 7.90896C13.7703 7.75979 13.8648 7.63129 13.9961 7.55123C14.1274 7.47118 14.2849 7.446 14.4346 7.48114L16.6189 8.02671C15.7389 5.26214 13.1097 3.23204 10.1352 3.17194L9.99978 3.17077C6.6151 3.17077 3.75492 5.64889 3.24915 8.95982C3.2257 9.11331 3.14225 9.2512 3.01713 9.34316C2.89202 9.43512 2.7355 9.47361 2.58201 9.45017C2.42851 9.42673 2.29062 9.34327 2.19866 9.21816C2.1067 9.09304 2.06821 8.93652 2.09165 8.78303C2.68484 4.90233 6.03479 2 9.99978 2ZM9.99978 18.0013C6.08123 18.0013 2.65518 15.0876 2.00813 11.2693C1.99105 11.1679 2.00098 11.0638 2.03692 10.9675C2.07286 10.8711 2.13355 10.786 2.21287 10.7205C2.29219 10.6551 2.38735 10.6117 2.48877 10.5947C2.59019 10.5778 2.69429 10.5878 2.7906 10.6239L5.91264 11.7946C6.05668 11.8501 6.17299 11.9602 6.23626 12.101C6.29952 12.2418 6.30462 12.4019 6.25044 12.5464C6.19626 12.6909 6.08719 12.8082 5.94696 12.8727C5.80674 12.9372 5.64671 12.9438 5.5017 12.8909L3.42671 12.1127L3.46613 12.2255C4.42069 14.8605 6.98038 16.7712 9.86476 16.8293L10.0002 16.8305C13.3486 16.8305 16.1881 14.4043 16.7352 11.1386C16.7609 10.9855 16.8463 10.8488 16.9728 10.7587C17.0992 10.6686 17.2562 10.6323 17.4094 10.658C17.5625 10.6837 17.6992 10.7691 17.7893 10.8956C17.8794 11.022 17.9156 11.179 17.89 11.3322C17.2488 15.1598 13.9222 18.0013 9.99978 18.0013Z" fill="#29283C"/>
</svg>
