<svg width="7" height="10" viewBox="0 0 7 10" fill="none" xmlns="http://www.w3.org/2000/svg">
<path d="M1.75 9.23125H5.25C5.42405 9.23125 5.59097 9.16211 5.71404 9.03904C5.83711 8.91597 5.90625 8.74905 5.90625 8.575C5.90625 8.40095 5.83711 8.23403 5.71404 8.11096C5.59097 7.98789 5.42405 7.91875 5.25 7.91875H1.75C1.57595 7.91875 1.40903 7.98789 1.28596 8.11096C1.16289 8.23403 1.09375 8.40095 1.09375 8.575C1.09375 8.74905 1.16289 8.91597 1.28596 9.03904C1.40903 9.16211 1.57595 9.23125 1.75 9.23125ZM3.5 0C4.42826 0 5.3185 0.368749 5.97487 1.02513C6.63125 1.6815 7 2.57174 7 3.5C7 4.42826 6.63125 5.3185 5.97487 5.97487C5.3185 6.63125 4.42826 7 3.5 7C2.57174 7 1.6815 6.63125 1.02513 5.97487C0.368749 5.3185 0 4.42826 0 3.5C0 2.57174 0.368749 1.6815 1.02513 1.02513C1.6815 0.368749 2.57174 0 3.5 0ZM3.5 1.3125C3.21273 1.3125 2.92828 1.36908 2.66288 1.47901C2.39748 1.58895 2.15633 1.75008 1.9532 1.9532C1.75008 2.15633 1.58895 2.39748 1.47901 2.66288C1.36908 2.92828 1.3125 3.21273 1.3125 3.5C1.3125 3.78727 1.36908 4.07172 1.47901 4.33712C1.58895 4.60252 1.75008 4.84367 1.9532 5.0468C2.15633 5.24992 2.39748 5.41105 2.66288 5.52099C2.92828 5.63092 3.21273 5.6875 3.5 5.6875C4.08016 5.6875 4.63656 5.45703 5.0468 5.0468C5.45703 4.63656 5.6875 4.08016 5.6875 3.5C5.6875 2.91984 5.45703 2.36344 5.0468 1.9532C4.63656 1.54297 4.08016 1.3125 3.5 1.3125Z" fill="#29283C"/>
</svg>
