<svg width="16" height="17" viewBox="0 0 16 17" fill="none" xmlns="http://www.w3.org/2000/svg">
<path d="M12.2559 0C14.3406 0 16 1.85456 16 4.1084V12.1104C15.9998 14.364 14.3405 16.2178 12.2559 16.2178H3.74414C1.65949 16.2178 0.000168622 14.364 0 12.1104V4.1084C0 1.85456 1.65938 -2.02703e-08 3.74414 0H12.2559ZM3.74414 1.29688C2.41009 1.29688 1.29688 2.54083 1.29688 4.1084V12.1104C1.29704 13.6778 2.41018 14.9209 3.74414 14.9209H12.2559C13.5898 14.9209 14.703 13.6778 14.7031 12.1104V4.1084C14.7031 2.54083 13.5899 1.29688 12.2559 1.29688H3.74414Z" fill="#29283C"/>
</svg>
