<svg width="20" height="20" viewBox="0 0 20 20" fill="none" xmlns="http://www.w3.org/2000/svg">
<path d="M10.8887 2.5C11.0296 2.50007 11.1651 2.55436 11.2671 2.65161C11.3691 2.74887 11.4298 2.88164 11.4365 3.02241C11.4433 3.16318 11.3957 3.30116 11.3035 3.40776C11.2113 3.51436 11.0816 3.5814 10.9413 3.595L10.8887 3.59756H6.35903C5.64216 3.59756 4.95339 3.87634 4.43833 4.37494C3.92327 4.87355 3.62229 5.5529 3.59902 6.26939L3.59756 6.35903V13.641C3.59756 14.3578 3.87634 15.0466 4.37494 15.5617C4.87355 16.0767 5.5529 16.3777 6.26939 16.401L6.35903 16.4024H13.641C14.3578 16.4024 15.0466 16.1237 15.5617 15.6251C16.0767 15.1265 16.3777 14.4471 16.401 13.7306L16.4024 13.641V9.11171C16.4024 8.97074 16.4566 8.83518 16.5539 8.73311C16.6511 8.63104 16.7839 8.5703 16.9247 8.56348C17.0655 8.55666 17.2035 8.60428 17.3101 8.69647C17.4168 8.78866 17.4838 8.91835 17.4974 9.05866L17.5 9.11134V13.641C17.5 15.7373 15.8284 17.4433 13.7456 17.4985L13.641 17.5H6.35903C4.26268 17.5 2.55671 15.8284 2.50146 13.7456L2.5 13.641V6.35903C2.5 4.26268 4.17159 2.55671 6.25439 2.50146L6.35903 2.5H10.8887Z" fill="#29283C" stroke="#29283C" stroke-width="0.2"/>
<path d="M16.0916 4.22921C15.8971 4.02779 15.6649 3.86665 15.4081 3.75499C15.1514 3.64333 14.8751 3.58334 14.5952 3.57845C14.3152 3.57356 14.0371 3.62386 13.7766 3.72648C13.5161 3.8291 13.2783 3.98202 13.077 4.17653L9.11476 8.00336C9.01453 8.10017 8.95488 8.2315 8.94793 8.37068L8.83268 10.6829C8.82903 10.7578 8.84076 10.8326 8.86716 10.9028C8.89356 10.973 8.93406 11.037 8.98617 11.091C9.03829 11.1449 9.1009 11.1876 9.17014 11.2164C9.23939 11.2452 9.3138 11.2594 9.38878 11.2584L11.7035 11.2243C11.843 11.2223 11.9764 11.1672 12.0767 11.0703L16.0393 7.24348C16.2407 7.04901 16.4018 6.81676 16.5135 6.56001C16.6252 6.30325 16.6851 6.02702 16.69 5.74707C16.6949 5.46713 16.6446 5.18897 16.542 4.92847C16.4394 4.66797 16.2865 4.43024 16.092 4.22885L16.0916 4.22921ZM15.3445 5.03811C15.5156 5.2384 15.6038 5.49642 15.5912 5.75953C15.5785 6.02264 15.466 6.27101 15.2765 6.45397L11.4698 10.1297L9.95768 10.152L10.0331 8.64177L13.8394 4.96604C13.9371 4.87166 14.0525 4.79746 14.1788 4.74766C14.3052 4.69787 14.4402 4.67347 14.576 4.67585C14.7119 4.67822 14.8459 4.70734 14.9705 4.76152C15.095 4.81571 15.2077 4.89391 15.3021 4.99165L15.3445 5.03811Z" fill="#29283C" stroke="#29283C" stroke-width="0.1"/>
</svg>
