<svg width="32" height="32" viewBox="0 0 32 32" fill="none" xmlns="http://www.w3.org/2000/svg">
<rect width="32" height="32" rx="16" fill="#F0EEFF"/>
<path d="M10 18C10.8284 18 11.5 17.3284 11.5 16.5C11.5 15.6716 10.8284 15 10 15C9.17157 15 8.5 15.6716 8.5 16.5C8.5 17.3284 9.17157 18 10 18Z" fill="url(#paint0_linear_127_1146)"/>
<path d="M16 18C16.8284 18 17.5 17.3284 17.5 16.5C17.5 15.6716 16.8284 15 16 15C15.1716 15 14.5 15.6716 14.5 16.5C14.5 17.3284 15.1716 18 16 18Z" fill="url(#paint1_linear_127_1146)"/>
<path d="M22 18C22.8284 18 23.5 17.3284 23.5 16.5C23.5 15.6716 22.8284 15 22 15C21.1716 15 20.5 15.6716 20.5 16.5C20.5 17.3284 21.1716 18 22 18Z" fill="url(#paint2_linear_127_1146)"/>
<defs>
<linearGradient id="paint0_linear_127_1146" x1="11.5" y1="15.3571" x2="9.34845" y2="18.519" gradientUnits="userSpaceOnUse">
<stop stop-color="#7E61FF"/>
<stop offset="1" stop-color="#A39BFF"/>
</linearGradient>
<linearGradient id="paint1_linear_127_1146" x1="17.5" y1="15.3571" x2="15.3485" y2="18.519" gradientUnits="userSpaceOnUse">
<stop stop-color="#7E61FF"/>
<stop offset="1" stop-color="#A39BFF"/>
</linearGradient>
<linearGradient id="paint2_linear_127_1146" x1="23.5" y1="15.3571" x2="21.3485" y2="18.519" gradientUnits="userSpaceOnUse">
<stop stop-color="#7E61FF"/>
<stop offset="1" stop-color="#A39BFF"/>
</linearGradient>
</defs>
</svg>
