<svg width="20" height="20" viewBox="0 0 20 20" fill="none" xmlns="http://www.w3.org/2000/svg">
<path d="M10.2098 1.25C9.74988 1.25002 9.29757 1.36721 8.89552 1.5905C8.49347 1.8138 8.15494 2.13584 7.91186 2.52625L7.63894 2.96458C7.42088 3.31479 7.12012 3.60605 6.76309 3.81275C6.40607 4.01945 6.00372 4.13526 5.59144 4.15L4.82228 4.1775C4.35517 4.19425 3.90014 4.33038 3.50057 4.5729C3.10101 4.81543 2.77023 5.15627 2.53978 5.56292C2.30975 5.96879 2.18501 6.42579 2.17693 6.89224C2.16885 7.35869 2.27769 7.81974 2.49353 8.23333L2.75686 8.73792C3.16936 9.52875 3.16936 10.4712 2.75686 11.2621L2.49311 11.7667C2.27714 12.1803 2.16819 12.6414 2.17619 13.1079C2.1842 13.5744 2.30891 14.0315 2.53894 14.4375C2.76949 14.8442 3.10041 15.1851 3.50014 15.4275C3.89986 15.67 4.35506 15.806 4.82228 15.8225L5.59019 15.8496C6.00258 15.8643 6.40502 15.9802 6.76212 16.187C7.11922 16.3937 7.42003 16.6851 7.63811 17.0354L7.91144 17.4738C8.15455 17.8641 8.49309 18.1861 8.89514 18.4094C9.29719 18.6326 9.74948 18.7498 10.2094 18.7498C10.6692 18.7498 11.1215 18.6326 11.5236 18.4094C11.9256 18.1861 12.2642 17.8641 12.5073 17.4738L12.7823 17.0312C13.0009 16.68 13.3027 16.388 13.661 16.1811C14.0192 15.9741 14.4229 15.8586 14.8364 15.8446L15.5294 15.8208C15.9999 15.8048 16.4588 15.6706 16.8638 15.4306C17.2688 15.1906 17.6069 14.8525 17.8469 14.4475C18.0875 14.0414 18.2185 13.5796 18.2269 13.1076C18.2353 12.6356 18.1209 12.1695 17.8948 11.755L17.6202 11.2517C17.4108 10.8677 17.301 10.4374 17.301 10C17.301 9.56264 17.4108 9.13228 17.6202 8.74833L17.8948 8.245C18.1209 7.83055 18.2353 7.36444 18.2269 6.89241C18.2185 6.42038 18.0875 5.95865 17.8469 5.5525C17.6069 5.14742 17.2688 4.80926 16.8638 4.56918C16.4588 4.32911 15.9999 4.19484 15.5294 4.17875L14.836 4.15542C14.4226 4.14123 14.0191 4.02552 13.661 3.8185C13.3029 3.61147 13.0013 3.3195 12.7827 2.96833L12.5073 2.52625C12.2642 2.1359 11.9258 1.8139 11.5238 1.59061C11.1218 1.36731 10.6696 1.25009 10.2098 1.25ZM10.2098 2.5C10.7131 2.5 11.1806 2.75958 11.4464 3.18708L11.7219 3.62875C12.0489 4.15413 12.5002 4.59095 13.0359 4.90065C13.5717 5.21035 14.1755 5.38342 14.7939 5.40458L15.4873 5.42833C15.7481 5.43725 16.0024 5.51165 16.2269 5.64468C16.4514 5.77771 16.6388 5.9651 16.7719 6.18958C16.9021 6.40932 16.9729 6.65913 16.9774 6.9145C16.982 7.16987 16.92 7.42204 16.7977 7.64625L16.5231 8.14958C16.2135 8.71719 16.0512 9.35342 16.0512 10C16.0512 10.6466 16.2135 11.2828 16.5231 11.8504L16.7981 12.3538C16.9204 12.578 16.9822 12.8302 16.9776 13.0856C16.973 13.3409 16.9021 13.5907 16.7719 13.8104C16.6388 14.0349 16.4514 14.2223 16.2269 14.3554C16.0025 14.4884 15.7481 14.5628 15.4873 14.5717L14.7939 14.5954C14.1755 14.6165 13.5718 14.7894 13.036 15.0989C12.5003 15.4085 12.0489 15.8452 11.7219 16.3704L11.4469 16.8129C11.3161 17.0232 11.1339 17.1967 10.9174 17.317C10.701 17.4374 10.4574 17.5005 10.2098 17.5005C9.96213 17.5005 9.71857 17.4374 9.50212 17.317C9.28566 17.1967 9.10344 17.0232 8.97269 16.8129L8.69978 16.3746C8.37341 15.8504 7.92324 15.4145 7.38886 15.1051C6.85448 14.7957 6.25227 14.6224 5.63519 14.6004L4.86686 14.5733C4.61317 14.5642 4.36603 14.4903 4.14903 14.3586C3.93203 14.2268 3.7524 14.0417 3.62728 13.8208C3.5001 13.5965 3.43111 13.344 3.4266 13.0862C3.42209 12.8284 3.4822 12.5736 3.60144 12.345L3.86478 11.8404C4.16128 11.2723 4.31612 10.6409 4.31612 10C4.31612 9.35913 4.16128 8.72774 3.86478 8.15958L3.60144 7.65542C3.48212 7.42677 3.42197 7.17187 3.42649 6.914C3.431 6.65613 3.50003 6.4035 3.62728 6.17917C3.75247 5.95826 3.93217 5.77311 4.14925 5.64138C4.36632 5.50965 4.61352 5.43573 4.86728 5.42667L5.63603 5.39917C6.25293 5.3771 6.85496 5.2038 7.38919 4.89451C7.92341 4.58522 8.37347 4.14942 8.69978 3.62542L8.97311 3.18708C9.10391 2.97695 9.28609 2.8036 9.50246 2.68338C9.71883 2.56317 9.96226 2.50006 10.2098 2.5Z" fill="#29283C"/>
<path d="M10 6.875C9.1712 6.875 8.37634 7.20424 7.79029 7.79029C7.20424 8.37634 6.875 9.1712 6.875 10C6.875 10.8288 7.20424 11.6237 7.79029 12.2097C8.37634 12.7958 9.1712 13.125 10 13.125C10.8288 13.125 11.6237 12.7958 12.2097 12.2097C12.7958 11.6237 13.125 10.8288 13.125 10C13.125 9.1712 12.7958 8.37634 12.2097 7.79029C11.6237 7.20424 10.8288 6.875 10 6.875ZM10 8.125C10.4973 8.125 10.9742 8.32254 11.3258 8.67417C11.6775 9.02581 11.875 9.50272 11.875 10C11.875 10.4973 11.6775 10.9742 11.3258 11.3258C10.9742 11.6775 10.4973 11.875 10 11.875C9.50272 11.875 9.02581 11.6775 8.67417 11.3258C8.32254 10.9742 8.125 10.4973 8.125 10C8.125 9.50272 8.32254 9.02581 8.67417 8.67417C9.02581 8.32254 9.50272 8.125 10 8.125Z" fill="#29283C"/>
</svg>
