<svg width="24" height="24" viewBox="0 0 24 24" fill="none" xmlns="http://www.w3.org/2000/svg">
<path d="M21 13H16" stroke="#29283C" stroke-width="1.15" stroke-linecap="round" stroke-linejoin="round"/>
<path d="M11.4286 9.92367C11.6864 9.43523 12.4432 9.48089 12.6149 10.0452L13.1225 11.7128L15.0028 12.3903C15.5793 12.5979 15.5696 13.4167 14.9883 13.6104L13.204 14.2043L12.6101 15.9886C12.4162 16.5696 11.5976 16.5793 11.3899 16.0031L10.7125 14.1228L9.04488 13.6153L9.04419 13.6146C8.44296 13.4311 8.43199 12.5839 9.02831 12.3847L10.7947 11.795L11.3844 10.0286L11.4286 9.92367Z" stroke="#29283C" stroke-width="1.15"/>
<path d="M8 13L3 13" stroke="#29283C" stroke-width="1.15" stroke-linecap="round" stroke-linejoin="round"/>
<rect x="2.575" y="6.575" width="18.85" height="14.85" rx="3.425" stroke="#29283C" stroke-width="1.15"/>
<path d="M17 7C17 5.34315 15.6569 4 14 4H10C8.34315 4 7 5.34315 7 7" stroke="#29283C" stroke-width="1.15"/>
</svg>
