<svg width="24" height="24" viewBox="0 0 24 24" fill="none" xmlns="http://www.w3.org/2000/svg">
<path d="M14.4965 20.3912C13.3277 22.2344 10.6445 22.2523 9.4511 20.4249L7.76967 17.8501C7.54261 17.5023 7.24583 17.2056 6.89812 16.9785L4.32328 15.2971C2.49585 14.1037 2.51378 11.4205 4.357 10.2517L6.52969 8.87391C6.8817 8.6507 7.18332 8.35658 7.41534 8.01032L9.47553 4.93571C10.6723 3.14965 13.3041 3.16525 14.4796 4.96537L16.2303 7.64629C16.4574 7.994 16.7542 8.29078 17.1019 8.51785L19.7828 10.2685C21.5829 11.4441 21.5985 14.0759 19.8125 15.2726L16.7379 17.3328C16.3916 17.5648 16.0975 17.8665 15.8743 18.2185L14.4965 20.3912Z" fill="#5257EF" stroke="#5257EF" stroke-width="1.5" stroke-linejoin="round"/>
<path d="M10 14.0391C10.6356 14.3605 11.3874 14.4582 12.1296 14.2593C12.8717 14.0604 13.474 13.6 13.8637 13.0038" stroke="white" stroke-width="1.25" stroke-linecap="round"/>
</svg>
