<svg width="24" height="24" viewBox="0 0 24 24" fill="none" xmlns="http://www.w3.org/2000/svg">
<path fill-rule="evenodd" clip-rule="evenodd" d="M3 10.5829C3 9.37833 3.61943 8.2584 4.63978 7.61818L10.1398 4.1672C11.2772 3.45349 12.7228 3.45349 13.8602 4.1672L19.3602 7.61818C20.3806 8.2584 21 9.37833 21 10.5829V17.5C21 19.433 19.433 21 17.5 21H6.5C4.567 21 3 19.433 3 17.5V10.5829Z" stroke="#29283C" stroke-width="1.15"/>
<path d="M14.4353 12.5407C14.6229 11.9778 15.4227 11.9883 15.5954 12.5559L16.007 13.9121L17.542 14.4638C18.0857 14.6596 18.0764 15.4315 17.5282 15.6143L16.0753 16.099L15.5913 17.5512C15.4085 18.0994 14.6366 18.1088 14.4408 17.565L13.8884 16.0321L12.5322 15.6191C11.9647 15.4463 11.9543 14.6467 12.517 14.459L13.9554 13.9791L14.4353 12.5407Z" stroke="#29283C" stroke-width="1.1"/>
</svg>
