<svg width="21" height="11" viewBox="0 0 21 11" fill="none" xmlns="http://www.w3.org/2000/svg">
<path d="M8.64313 3.45728V10.316H7.8513V9.85876H2.02974V10.316H1.23792V3.45728H4.26022C4.34944 3.1004 4.42751 2.72122 4.47212 2.33088H1.15573e-06V1.55021H2.84387C2.67658 1.11527 2.48699 0.702628 2.26394 0.323446L3.04461 0.033483C3.26766 0.457275 3.47956 0.959134 3.66915 1.55021H6.14498C6.40149 1.05951 6.62454 0.546494 6.81413 2.55621e-05L7.60595 0.278836C7.42751 0.75839 7.23792 1.18218 7.02602 1.55021H9.88104V2.33088H5.3197C5.25279 2.72122 5.18588 3.1004 5.09666 3.45728H8.64313ZM2.02974 9.13386H7.8513V7.94055H2.02974V9.13386ZM2.02974 7.22679H7.8513V6.06694H2.02974V7.22679ZM2.02974 5.35319H7.8513V4.19334H2.02974V5.35319ZM19.539 2.52047V7.79557H18.7361V3.30114H13.4052V7.81787H12.6022V2.52047H15.4238C15.5353 2.13014 15.6134 1.72865 15.6691 1.30486H11.1859V0.546494H21V1.30486H16.5167C16.4498 1.72865 16.3718 2.14129 16.2602 2.52047H19.539ZM16.829 7.81787C18.2677 8.30858 19.5836 8.8885 20.7658 9.57995L20.2751 10.3383C19.0037 9.5465 17.71 8.92196 16.3829 8.47586L16.829 7.81787ZM15.6803 3.97029H16.5056V5.74352C16.461 6.97029 16.0595 7.94055 15.3234 8.67661C14.6097 9.3569 13.4387 9.88107 11.8104 10.2603L11.3532 9.5465C12.9703 9.18962 14.0967 8.72122 14.7323 8.13014C15.3346 7.51676 15.6468 6.72493 15.6803 5.74352V3.97029Z" fill="#29283C"/>
</svg>
